<?xml version="1.0" encoding="utf-8"?>
<!-- Generator: Adobe Illustrator 26.0.0, SVG Export Plug-In . SVG Version: 6.00 Build 0)  -->
<svg version="1.1" id="Capa_1" xmlns="http://www.w3.org/2000/svg" xmlns:xlink="http://www.w3.org/1999/xlink" x="0px" y="0px"
	 viewBox="0 0 48 48" style="enable-background:new 0 0 48 48;" xml:space="preserve">
<style type="text/css">
	.st0{fill:#7100C1;}
</style>
<path class="st0" d="M14.4,44c-1,0-1.9-0.3-2.6-1c-0.7-0.7-1.1-1.6-1.1-2.6s0.3-1.8,1.1-2.5c0.7-0.7,1.6-1,2.6-1c1,0,1.8,0.4,2.5,1
	c0.7,0.7,1.1,1.5,1.1,2.5s-0.4,1.9-1.1,2.6S15.4,44,14.4,44z M34.3,44c-1,0-1.8-0.3-2.5-1c-0.7-0.7-1-1.6-1-2.6s0.4-1.8,1-2.5
	c0.7-0.7,1.5-1,2.5-1c1,0,1.8,0.4,2.5,1c0.7,0.7,1.1,1.5,1.1,2.5s-0.3,1.9-1,2.6S35.3,44,34.3,44z M11.8,10.9l5.5,11.4h14.4l0,0l0,0
	l6.3-11.4l0,0l0,0H11.8z M10.2,7.9h29.5c1.1,0,1.7,0.3,2,1c0.3,0.6,0.2,1.4-0.3,2.2l-6.8,12.1c-0.3,0.6-0.8,1.1-1.4,1.5
	c-0.6,0.4-1.2,0.6-1.9,0.6H16.2l-2.8,5.2c0,0,0,0,0,0c0,0,0,0,0,0H38v3H13.9c-1.4,0-2.4-0.5-3-1.4c-0.6-0.9-0.6-2,0-3.2l3.2-5.9
	L6.4,7H2.5V4h5.8L10.2,7.9z M17.2,22.4h14.4l0,0l0,0H17.2z"/>
</svg>
