<?xml version="1.0" encoding="utf-8"?>
<!-- Generator: Adobe Illustrator 26.0.0, SVG Export Plug-In . SVG Version: 6.00 Build 0)  -->
<svg version="1.1" id="Capa_1" xmlns="http://www.w3.org/2000/svg" xmlns:xlink="http://www.w3.org/1999/xlink" x="0px" y="0px"
	 viewBox="0 0 48 48" style="enable-background:new 0 0 48 48;" xml:space="preserve">
<style type="text/css">
	.st0{fill:url(#SVGID_1_);}
	.st1{fill:url(#SVGID_00000113319040029669617990000010799792133031316097_);}
	.st2{fill:#FFFFFF;}
	.st3{fill:#E000FF;}
</style>
<linearGradient id="SVGID_1_" gradientUnits="userSpaceOnUse" x1="35.2926" y1="5.2906" x2="13.5405" y2="41.7754">
	<stop  offset="0" style="stop-color:#ED00FF"/>
	<stop  offset="1" style="stop-color:#6E00FF"/>
</linearGradient>
<path class="st0" d="M12.8,11.7c0-0.5,0-1,0-1.4c0-2.3,1.9-4.7,4.1-5.3c1.8-0.4,3.4-0.1,4.8,1c0.1,0.1,0.2,0.2,0.3,0.3
	c0.1,0.1,0.1,0.1,0.2,0.2c1.2-0.7,2.5-0.8,3.8-0.2c0.5-0.6,1-1.2,1.8-1.4c1.3-0.5,2.5-0.5,3.7,0.2c0.7,0.4,1.1,1,1.4,1.7
	c0.1,0.2,0.1,0.4,0.2,0.6c1.7-0.2,3.2,0.2,4.5,1.4c0.8,0.8,1.4,2.3,0.6,3.7c0,0.1-0.1,0.1-0.1,0.2c0.1,0.1,0.2,0.3,0.3,0.4
	c1.3,1.4,1.7,3.1,1.2,5c-0.3,1.2-0.4,2.4-0.6,3.6c-0.2,1.1-0.3,2.1-0.5,3.2c-0.2,1.2-0.4,2.3-0.6,3.5c-0.2,1.5-0.5,3.1-0.7,4.6
	c-0.2,1.5-0.4,3-0.7,4.5c-0.2,1-0.3,2.1-0.5,3.1c-0.3,1.5-1.4,2.5-3,2.6c-0.2,0-0.4,0-0.5,0c-6.3,0-12.5,0-18.8,0
	c-0.2,0-0.4,0-0.5,0c-0.6,0-0.9-0.3-1-0.9c-0.2-0.9-0.3-1.8-0.5-2.8c-0.3-1.8-0.6-3.6-0.9-5.5c-0.2-1.5-0.4-2.9-0.7-4.4
	c-0.3-1.7-0.6-3.4-0.8-5.2c-0.2-1.1-0.3-2.3-0.5-3.4c-0.1-0.7-0.2-1.3-0.3-2c0-0.2-0.2-0.4-0.3-0.5c-1.1-1.6-1.3-3.3-0.3-5
	C8.9,12.1,10.5,11.2,12.8,11.7z M37.8,17.7c0.4-0.8,0.2-1.6-0.2-2.3c-0.7-1.6-2.5-2.3-3.9-1.5c-0.2,0.1-0.5,0.2-0.7,0.3
	c-0.6,0.2-1.1,0.1-1.4-0.5c-0.1-0.2-0.2-0.5-0.3-0.7c-0.8-1.6-1.7-1.6-2.9-1.4c-0.2,0-0.5,0.1-0.7,0.1c-0.5,0-0.9-0.2-1-0.8
	c0-0.1,0-0.3-0.1-0.5c-0.1-0.6-0.2-1.2-0.6-1.7c-0.7-0.9-1.8-1.1-2.8-0.6c-0.2,0.1-0.4,0.3-0.6,0.4c-0.6,0.3-1,0.3-1.4-0.2
	C21.2,8.3,21.1,8.1,21,8c-2-2.2-4.8-1.3-5.8,0.7c-0.5,0.9-0.6,1.9-0.4,2.9c0.1,0.4,0.1,0.9,0.2,1.3c0.1,0.7-0.5,1.4-1.4,1.1
	c-0.5-0.2-1-0.3-1.5-0.5c-0.4-0.1-0.8-0.1-1.2,0c-1.4,0.4-2,2.1-1.5,3.5c0.2,0.5,0.4,0.7,1,0.6c2.2,0,4.3,0,6.5,0
	c0.2,0,0.3,0,0.5-0.1c-0.5-0.7-0.8-1.5-0.7-2.3c0-1.3,0.5-2.4,1.5-3.3c1.4-1.2,3.5-1.3,5-0.1c0.5,0.4,0.9,1,1.1,1.6
	c0.1,0.4,0.1,0.7-0.2,1c-0.3,0.3-0.6,0.4-1,0.3c-0.4-0.1-0.5-0.3-0.7-0.7c-0.2-0.5-0.6-0.8-1.1-1c-0.9-0.3-2,0.2-2.5,1
	c-0.7,1.1-0.2,2.3,0.6,2.9c0.6,0.4,1.2,0.6,1.9,0.6c5.2,0,10.4,0,15.7,0C37.3,17.7,37.5,17.7,37.8,17.7z M24.2,34.6
	c0.4,0,1-0.1,1.7-0.2c1.3-0.1,2.5-0.5,3.7-1c0.7-0.3,1.4-0.8,1.8-1.4c0.5-0.7,0.4-1.3-0.1-1.9c-0.3-0.3-0.6-0.6-0.9-0.8
	c-1.5-1.1-3.3-1.5-5.1-1.6c-1.3-0.1-2.6-0.1-3.9,0.1c-1.5,0.3-2.9,0.7-4.1,1.5c-0.4,0.3-0.7,0.6-1,1c-0.4,0.5-0.4,1.1,0,1.7
	c0.4,0.6,0.9,1,1.5,1.3C19.8,34.2,21.9,34.6,24.2,34.6z M31.8,27.7c0.4,0.4,0.6,0.7,0.9,1c1.3,1.4,1.4,3.2,0.2,4.6
	c-0.4,0.4-0.8,0.8-1.3,1.2c-0.2,0.1-0.3,0.3-0.3,0.5c-0.1,1-0.2,1.9-0.3,2.9c-0.1,1.1-0.2,2.2-0.4,3.3c0,0.1,0,0.2,0,0.4
	c0.9,0,1.7,0,2.6,0c0.6,0,0.9-0.3,1-0.9c0.1-0.4,0.2-0.8,0.2-1.3c0.2-1.1,0.3-2.2,0.5-3.3c0.2-1.5,0.4-3,0.7-4.5
	c0.2-1.5,0.5-3,0.7-4.5c0.2-1.2,0.4-2.4,0.6-3.6c0.2-1.1,0.3-2.1,0.5-3.2c0-0.2,0-0.4,0-0.6c-1.6,0-3.1,0-4.8,0
	C32.3,22.3,32.1,25.1,31.8,27.7z M16.1,27.8c-0.2-2.7-0.5-5.4-0.7-8.2c-1.6,0-3.2,0-4.8,0c1.2,7.3,2.3,14.6,3.4,21.9
	c1.2,0,2.3,0,3.4,0c-0.3-2.3-0.5-4.5-0.8-6.7c-0.6-0.5-1.1-0.9-1.5-1.5c-1-1.3-1.2-2.7-0.3-4.1C15.2,28.7,15.7,28.3,16.1,27.8z
	 M29.3,35.7c-3.6,1.1-7.1,1.1-10.6,0c0.2,2,0.4,3.9,0.7,5.8c3.1,0,6.2,0,9.3,0C28.9,39.5,29.1,37.6,29.3,35.7z M30,26.8
	c0.2-2.5,0.5-4.8,0.6-7.2c-1.5-0.1-5.2-0.1-5.7,0.1c0,2,0,3.9,0,6C26.7,25.8,28.4,26.1,30,26.8z M17.9,26.7c0.9-0.3,1.7-0.5,2.6-0.7
	c0.8-0.2,1.7-0.3,2.5-0.4c0.1-1.2,0.1-5.5,0-6c-1.3-0.1-5.1-0.1-5.7,0.1C17.5,22,17.7,24.3,17.9,26.7z M36.4,11.9
	c0.4-0.8,0.3-1.4-0.3-1.9c-0.3-0.2-0.5-0.4-0.8-0.5c-0.9-0.3-1.7-0.3-2.6,0.1c-0.8,0.4-1.5-0.1-1.4-1c0-0.2,0-0.4,0-0.5
	c-0.1-0.9-0.4-1.4-1.3-1.6c-0.6-0.1-1.1,0-1.6,0.2c-0.4,0.2-0.6,0.4-0.7,0.8c0.3,0.7,0.6,1.3,0.9,2c2.1-0.3,3.6,0.7,4.5,2.5
	C34.2,11.6,35.3,11.5,36.4,11.9z"/>
<linearGradient id="SVGID_00000058579157130740960910000011539517666535679929_" gradientUnits="userSpaceOnUse" x1="36.4944" y1="9.1762" x2="13.8142" y2="47.2178">
	<stop  offset="0" style="stop-color:#ED00FF"/>
	<stop  offset="1" style="stop-color:#6E00FF"/>
</linearGradient>
<path style="fill:url(#SVGID_00000058579157130740960910000011539517666535679929_);" d="M0.9,41.6c0,0,9.3-4.4,15.1-4.4
	c6.1,0,26.2,0.8,31.2-3.6V17.7c0,0-6.4,4.9-31.5,2.9c0,0-14.6-0.2-14.9,6.9S0.9,41.6,0.9,41.6z"/>
<g>
	<path class="st2" d="M14.7,32.7c0.2-0.1,0.3-0.2,0.4-0.3c0.1,0,0.2-0.1,0.3-0.1c0.2,0,0.4,0,0.5,0.2c0.1,0.1,0.2,0.3,0.2,0.5
		c0,0.1,0,0.1,0,0.2c0,0.1,0,0.2-0.1,0.3c-0.1,0.2-0.2,0.4-0.4,0.5c-0.2,0.1-0.3,0.2-0.5,0.3c-0.2,0.1-0.3,0.1-0.5,0.1
		c-0.1,0-0.2,0-0.3,0c-0.5,0-0.8,0-1.1-0.2c-0.3-0.2-0.4-0.5-0.4-1c0-0.4,0-0.7,0.1-1.2c0.1-0.4,0.2-1,0.3-1.7
		c0.1-0.3,0.1-0.5,0.1-0.8s0.1-0.5,0.1-0.8c0-0.1,0-0.2,0-0.3c0-0.1,0-0.3,0.1-0.4c0-0.1,0-0.3,0.1-0.4c0-0.1,0-0.2,0-0.3
		c0-0.3-0.2-0.4-0.4-0.4c-0.1,0-0.3,0.1-0.4,0.3s-0.3,0.3-0.3,0.4c-0.4,0.6-0.8,1.3-1.1,2.4c-0.4,1-0.6,2.3-0.8,3.9
		c0,0.3-0.1,0.5-0.1,0.6c0,0.1-0.1,0.2-0.2,0.3c-0.1,0.1-0.2,0.1-0.3,0.2c-0.1,0.1-0.3,0.1-0.5,0.1c0,0-0.1,0-0.2,0
		c-0.1,0-0.2,0-0.3,0c-0.1,0-0.2-0.1-0.3-0.2c-0.1-0.1-0.1-0.2-0.1-0.3c0-0.1,0-0.4,0.1-0.8C9,33,9,32.6,9.1,32.1
		c0.1-0.6,0.2-1.2,0.3-1.8c0.1-0.6,0.2-1.2,0.2-1.8c0,0,0-0.1,0-0.3c0-0.2,0-0.3,0-0.5c0-0.2-0.1-0.3-0.1-0.4
		c-0.1-0.1-0.2-0.1-0.3-0.1c-0.1,0-0.3,0.1-0.4,0.3c-0.1,0.1-0.2,0.2-0.3,0.4c-0.1,0.2-0.2,0.3-0.3,0.5c-0.1,0.2-0.2,0.3-0.3,0.5
		c-0.1,0.2-0.1,0.3-0.2,0.4c-0.2,0.4-0.3,0.9-0.5,1.4c-0.1,0.5-0.3,1-0.4,1.5c-0.1,0.5-0.2,0.9-0.2,1.2C6.7,33.8,6.7,34,6.7,34
		c0,0.1,0,0.3-0.1,0.3s0,0.2,0,0.2c0,0.1-0.1,0.2-0.2,0.3c-0.1,0.1-0.3,0.1-0.5,0.2c-0.3,0-0.6,0-0.7-0.1c-0.1-0.1-0.2-0.2-0.2-0.4
		c0-0.1,0-0.3,0.1-0.6c0-0.3,0.1-0.6,0.2-0.9c0.1-0.5,0.2-1,0.2-1.4c0.1-0.5,0.1-0.9,0.2-1.4c0-0.3,0.1-0.6,0.1-0.9
		c0-0.2,0.1-0.5,0.1-0.6s0-0.4,0-0.5c0-0.2,0-0.3,0-0.5c-0.1,0.1-0.2,0.2-0.3,0.3C5.3,28,5.2,28,5,28c-0.2,0-0.4,0-0.5-0.2
		c-0.1-0.1-0.2-0.3-0.2-0.5c0-0.1,0-0.1,0-0.2c0-0.1,0-0.2,0.1-0.4c0.1-0.1,0.2-0.3,0.3-0.4c0.1-0.1,0.3-0.2,0.4-0.3
		c0.2-0.1,0.3-0.2,0.5-0.2c0.2-0.1,0.3-0.1,0.5-0.1c0.2,0,0.4,0,0.6,0.1C6.8,25.9,6.9,26,7,26.1c0.1,0.1,0.2,0.3,0.2,0.5
		c0.1,0.2,0.1,0.4,0.1,0.5c0,0.1,0,0.2,0,0.3c0,0.1,0,0.2,0,0.3c0.4-0.8,0.7-1.4,1.1-1.8c0.4-0.4,0.8-0.6,1.3-0.6c0.1,0,0.2,0,0.4,0
		c0.1,0,0.3,0.1,0.4,0.1c0.1,0.1,0.3,0.2,0.4,0.4c0.1,0.2,0.2,0.4,0.3,0.7c0,0.1,0,0.2,0,0.3c0,0.1,0,0.2,0,0.4
		c0.1-0.3,0.3-0.5,0.4-0.8s0.3-0.5,0.5-0.7c0.2-0.2,0.4-0.4,0.7-0.5c0.3-0.1,0.5-0.2,0.9-0.3c0.1,0,0.2,0,0.4,0
		c0.2,0,0.4,0.1,0.6,0.2c0.3,0.2,0.5,0.4,0.6,0.6s0.1,0.4,0.1,0.5c0,0.2,0,0.4,0,0.6c0,0.2,0,0.4-0.1,0.7c0,0.2-0.1,0.4-0.1,0.6
		c0,0.2-0.1,0.4-0.1,0.6c-0.1,0.3-0.1,0.7-0.2,1c-0.1,0.3-0.1,0.6-0.2,1c-0.1,0.5-0.2,0.9-0.2,1.2C14.6,32.1,14.6,32.4,14.7,32.7z"
		/>
	<path class="st2" d="M23.8,30.4c0,0-0.1,0.2-0.1,0.5c-0.1,0.3-0.2,0.7-0.4,1.1c-0.2,0.4-0.4,0.8-0.7,1.2c-0.3,0.4-0.6,0.7-1,0.9
		c-0.3,0.2-0.6,0.3-0.9,0.3c-0.3,0.1-0.6,0.1-1,0.1c-0.4,0-0.8-0.1-1.1-0.2c-0.3-0.1-0.6-0.3-0.8-0.4c-0.2-0.2-0.4-0.4-0.5-0.6
		c-0.1-0.2-0.2-0.4-0.3-0.6c0-0.1-0.1-0.3-0.1-0.5c0-0.2,0-0.4,0-0.8c0-0.2,0-0.4,0-0.8c0-0.3,0.1-0.7,0.2-1.2
		c0.1-0.4,0.2-0.9,0.4-1.4c0.2-0.5,0.4-1,0.7-1.4c0.1-0.2,0.2-0.3,0.4-0.5c0.1-0.2,0.3-0.3,0.4-0.4c0.2-0.2,0.5-0.3,0.8-0.5
		c0.4-0.2,0.8-0.2,1.4-0.2c0.4,0,0.7,0.1,1,0.2c0.3,0.1,0.5,0.2,0.7,0.4c0.2,0.1,0.4,0.3,0.5,0.5c0.1,0.2,0.2,0.3,0.3,0.5
		c0.1,0.2,0.1,0.3,0.2,0.5c0,0.2,0.1,0.4,0.1,0.5c0,0.2,0,0.3,0,0.4c0,0.1,0,0.2,0,0.3c0,0.2,0,0.5-0.1,0.8
		C24,29.5,23.9,29.9,23.8,30.4z M18.8,29.8c0,0.1-0.1,0.3-0.1,0.6c-0.1,0.3-0.1,0.6-0.1,0.9c0,0.3,0,0.6,0.1,0.8
		c0.1,0.2,0.2,0.4,0.3,0.5c0.1,0.1,0.3,0.2,0.4,0.3c0.2,0.1,0.3,0.1,0.5,0.1c0.2,0,0.4,0,0.6-0.1c0.2-0.1,0.3-0.2,0.4-0.3
		c0.1-0.1,0.2-0.2,0.3-0.3c0.1-0.1,0.1-0.2,0.1-0.2c0.1-0.2,0.3-0.5,0.4-0.8c0.1-0.3,0.2-0.6,0.3-0.9c0.1-0.3,0.2-0.6,0.2-1
		c0.1-0.3,0.1-0.6,0.1-0.9c0,0,0-0.1,0-0.2c0-0.1,0-0.2,0-0.4c0-0.1,0-0.3-0.1-0.4c0-0.1-0.1-0.3-0.2-0.4c-0.1-0.1-0.2-0.2-0.4-0.3
		c-0.2-0.1-0.3-0.1-0.5-0.1c-0.5,0-1,0.3-1.4,0.8C19.4,28,19.1,28.8,18.8,29.8z"/>
	<path class="st2" d="M26.4,27.5c-0.3,0-0.6,0-0.8,0c-0.2,0-0.4,0-0.5-0.1c-0.1,0-0.2-0.1-0.3-0.2c-0.1-0.1-0.1-0.3-0.1-0.5
		c0-0.3,0.1-0.5,0.2-0.7s0.4-0.3,0.6-0.3c0.1,0,0.2,0,0.3,0c0.1,0,0.2,0,0.3,0.1c0,0,0.1,0,0.2,0c0.1,0,0.2,0,0.4,0
		c0.1,0,0.2,0,0.3,0c0.1,0,0.3,0,0.4-0.1c0.1-0.1,0.3-0.1,0.3-0.2c0.1-0.1,0.2-0.1,0.4-0.1c0.2,0,0.4,0.1,0.6,0.3
		c0.2,0.2,0.3,0.4,0.3,0.6c0,0.1,0,0.3-0.1,0.4c-0.1,0.1-0.2,0.3-0.3,0.5c-0.1,0.2-0.2,0.4-0.3,0.5c-0.1,0.2-0.2,0.4-0.3,0.5
		c-0.4,0.8-0.6,1.5-0.8,2.1c-0.1,0.6-0.2,1.1-0.2,1.5c0,0,0,0.1,0,0.2c0,0.1,0,0.2,0,0.4s0.1,0.3,0.1,0.4c0.1,0.1,0.2,0.3,0.3,0.4
		c0.1,0.1,0.3,0.2,0.4,0.2c0.1,0,0.2,0,0.3,0c0.3,0,0.5-0.1,0.8-0.3c0.2-0.2,0.4-0.4,0.5-0.6c0.2-0.3,0.4-0.6,0.5-1
		c0.2-0.4,0.3-1,0.5-1.7c0-0.1,0-0.2,0.1-0.3c0-0.1,0.1-0.3,0.1-0.5c0-0.2,0.1-0.4,0.1-0.6c0-0.2,0-0.4,0-0.7c0,0,0-0.1,0-0.3
		c0-0.2,0-0.3,0-0.5c0-0.1-0.1-0.2-0.1-0.4c0-0.1-0.1-0.2-0.1-0.4c0-0.2,0.1-0.3,0.2-0.4c0.1-0.1,0.2-0.2,0.4-0.2s0.3-0.1,0.5-0.1
		c0.2,0,0.4,0,0.6,0.1c0.1,0.1,0.2,0.2,0.3,0.3c0.1,0.1,0.1,0.2,0.1,0.3c0,0.1,0,0.2,0,0.3c0,0.2,0,0.3,0,0.5c0,0.2,0,0.3,0,0.5
		c-0.1,0.6-0.2,1.1-0.3,1.7c-0.1,0.5-0.2,1-0.4,1.5s-0.3,0.8-0.4,1.2c-0.1,0.3-0.2,0.6-0.3,0.7c-0.2,0.5-0.5,0.9-0.8,1.2
		c-0.3,0.3-0.6,0.5-0.9,0.7c-0.3,0.2-0.6,0.3-0.9,0.3c-0.3,0.1-0.6,0.1-0.8,0.1c-0.6,0-1.1-0.1-1.5-0.3c-0.4-0.2-0.6-0.4-0.8-0.7
		c-0.2-0.3-0.3-0.6-0.4-0.9c-0.1-0.3-0.1-0.6-0.1-0.8c0-0.5,0.1-1,0.2-1.5c0.1-0.5,0.3-1,0.4-1.5c0.1-0.4,0.3-0.8,0.4-1.2
		C26.3,27.7,26.4,27.5,26.4,27.5z"/>
	<path class="st2" d="M36,32.6c0.2-0.2,0.3-0.3,0.4-0.3s0.2-0.1,0.4-0.1c0.2,0,0.4,0,0.6,0.2c0.2,0.1,0.2,0.3,0.3,0.5
		c0,0.1,0,0.3-0.1,0.4c-0.1,0.2-0.2,0.3-0.3,0.5c-0.1,0.1-0.3,0.3-0.6,0.4c-0.2,0.1-0.5,0.2-0.8,0.2c-0.1,0-0.1,0-0.2,0
		c-0.1,0-0.2,0-0.4-0.1c-0.2,0-0.4-0.2-0.5-0.3c-0.2-0.2-0.3-0.5-0.3-0.9c0-0.2,0-0.5,0-0.8c0-0.3,0.1-0.7,0.1-1.2
		c0.1-0.4,0.1-0.9,0.2-1.3c0.1-0.4,0.1-0.9,0.2-1.3c0.1-0.4,0.1-0.7,0.1-0.9c0-0.2,0-0.4,0-0.6c-0.1,0-0.1,0.1-0.2,0.1
		c-0.1,0-0.2,0.1-0.4,0.1c-0.2,0-0.4,0-0.6-0.1c-0.2-0.1-0.3-0.3-0.3-0.5c0-0.2,0-0.3,0.1-0.4c0.1-0.1,0.1-0.2,0.1-0.2
		c0.2-0.2,0.4-0.4,0.8-0.5c0.4-0.2,0.7-0.2,0.9-0.3c0.4,0,0.7,0,0.9,0.2c0.2,0.2,0.4,0.5,0.4,0.8c0,0.3,0,0.6-0.1,1
		c-0.1,0.4-0.1,0.9-0.2,1.5c-0.1,0.6-0.2,1-0.2,1.4c-0.1,0.4-0.1,0.7-0.1,1c0,0.3-0.1,0.6-0.1,0.8C36,32,36,32.3,36,32.6z
		 M35.8,21.7c0.3,0,0.5,0,0.7,0.2c0.2,0.1,0.3,0.3,0.3,0.6c0,0.1,0,0.1,0,0.2c0,0.1,0,0.1,0,0.3c0,0.2-0.1,0.3-0.2,0.4
		c-0.1,0.1-0.2,0.2-0.3,0.3c-0.1,0.1-0.2,0.1-0.3,0.1c-0.1,0-0.2,0-0.3,0.1c-0.1,0-0.1,0-0.2,0c-0.1,0-0.1,0-0.2,0
		c-0.4-0.1-0.6-0.4-0.6-0.8c0-0.3,0-0.6,0.2-0.9C35.2,22,35.4,21.8,35.8,21.7z"/>
	<path class="st2" d="M40.4,29.9c0,0.1,0,0.2,0,0.4c0,0.2,0,0.4,0,0.6l0,0.2c0,0.1,0,0.2,0.1,0.3c0,0.1,0.1,0.1,0.1,0.3
		c0.1,0.1,0.1,0.2,0.2,0.3c0.1,0.1,0.2,0.2,0.4,0.2c0.1,0.1,0.3,0.1,0.5,0c0.1,0,0.3-0.1,0.4-0.2c0.2-0.1,0.3-0.2,0.5-0.5
		c0.1-0.1,0.1-0.2,0.2-0.3c0.1-0.1,0.1-0.2,0.2-0.3c0-0.1,0-0.1,0.1-0.2c0,0,0-0.1,0.1-0.1c0-0.1,0.1-0.2,0.2-0.3
		c0.1-0.1,0.3-0.2,0.5-0.3c0.2,0,0.4,0,0.6,0.1c0.1,0.1,0.2,0.3,0.3,0.5c0,0.1,0,0.2,0,0.3c0,0.1,0,0.2-0.1,0.3c0,0.1,0,0.2-0.1,0.3
		c0,0.1,0,0.1-0.1,0.1c-0.1,0.1-0.1,0.3-0.3,0.5c-0.1,0.2-0.3,0.4-0.5,0.6c-0.2,0.2-0.5,0.4-0.8,0.5c-0.3,0.2-0.6,0.3-1,0.3
		c-0.9,0.2-1.6,0-2.2-0.5c-0.6-0.5-0.9-1.1-1.1-2c0-0.2-0.1-0.5-0.1-0.8c0-0.3,0-0.7,0-1.2c0-0.4,0.1-0.9,0.1-1.4
		c0.1-0.5,0.2-0.9,0.4-1.4c0.2-0.4,0.4-0.8,0.7-1.2s0.6-0.7,1.1-0.9c0.1,0,0.2-0.1,0.4-0.2c0.2-0.1,0.4-0.1,0.7-0.2c0,0,0.1,0,0.3,0
		c0.2,0,0.4,0,0.6,0c0.2,0,0.4,0.1,0.6,0.2c0.2,0.1,0.4,0.2,0.6,0.5c0.1,0.1,0.1,0.2,0.2,0.3c0.1,0.1,0.1,0.3,0.1,0.5
		c0,0.1,0,0.2,0,0.3c0,0.1,0,0.3,0,0.5c0,0.2-0.1,0.5-0.2,0.9c-0.1,0.4-0.3,0.7-0.7,1.2c-0.3,0.3-0.5,0.6-0.8,0.8s-0.6,0.4-0.8,0.5
		c-0.3,0.1-0.5,0.2-0.7,0.3C40.7,29.8,40.5,29.9,40.4,29.9z M40.5,28.4c0.2-0.1,0.4-0.1,0.7-0.3c0.3-0.1,0.6-0.3,0.8-0.6
		c0.1-0.1,0.1-0.2,0.2-0.3c0.1-0.1,0.1-0.1,0.1-0.2c0,0,0-0.1,0.1-0.1c0-0.1,0.1-0.2,0.1-0.3c0-0.1,0.1-0.2,0.1-0.3
		c0-0.1,0-0.2,0-0.4c0-0.2-0.1-0.3-0.2-0.4c-0.1-0.1-0.3-0.1-0.5-0.1c-0.2,0-0.4,0.1-0.5,0.3c-0.1,0.2-0.3,0.4-0.4,0.7
		c-0.1,0.2-0.1,0.4-0.2,0.6c-0.1,0.2-0.1,0.4-0.1,0.6c0,0.2-0.1,0.3-0.1,0.5S40.5,28.4,40.5,28.4z"/>
</g>
<g>
	<path class="st3" d="M22.3,39.6c0,0,0.1-0.1,0.1-0.1c0,0,0.1,0,0.1,0c0.1,0,0.1,0,0.1,0.1c0,0,0.1,0.1,0.1,0.1c0,0,0,0,0,0.1
		s0,0.1-0.1,0.1c0,0-0.1,0.1-0.1,0.1c-0.1,0-0.1,0.1-0.2,0.1c0,0,0,0-0.1,0c0,0-0.1,0-0.1,0C22.1,40,22,40,22,39.9
		c0,0-0.1-0.1-0.1-0.2c0,0,0,0,0-0.1c0,0,0-0.1,0-0.1c0,0.1-0.1,0.1-0.1,0.2c0,0.1-0.1,0.1-0.1,0.1c-0.1,0-0.1,0.1-0.2,0.1
		c-0.1,0-0.1,0-0.2,0c0,0-0.1,0-0.1,0c-0.1,0-0.1,0-0.2-0.1c-0.1,0-0.1-0.1-0.1-0.2c0-0.1-0.1-0.1-0.1-0.2c0-0.1,0-0.1,0-0.2
		c0,0,0-0.1,0-0.1c0,0,0-0.1,0-0.1c0-0.1,0-0.1,0-0.2c0,0,0-0.1,0-0.2c0-0.1,0-0.2,0.1-0.3c0-0.1,0.1-0.2,0.1-0.3
		c0-0.1,0.1-0.2,0.2-0.3c0,0,0-0.1,0.1-0.1c0,0,0.1-0.1,0.1-0.1s0.1-0.1,0.2-0.1c0.1,0,0.2,0,0.2,0c0,0,0,0,0.1,0c0,0,0.1,0,0.1,0
		c0,0,0.1,0,0.1,0s0.1,0,0.1,0.1c0,0,0.1,0.1,0.1,0.1c0,0,0,0,0-0.1c0,0,0,0,0-0.1c0,0,0,0,0-0.1c0,0,0,0,0-0.1c0,0,0,0,0.1-0.1
		c0,0,0.1,0,0.1,0c0.1,0,0.1,0,0.2,0c0,0,0.1,0.1,0.1,0.1c0,0,0,0.1,0,0.2c0,0.1,0,0.1-0.1,0.2c0,0,0,0.1,0,0.1c0,0,0,0.1,0,0.1
		c-0.1,0.3-0.1,0.5-0.2,0.6c0,0.2-0.1,0.3-0.1,0.4c0,0,0,0.1,0,0.1S22.3,39.6,22.3,39.6z M21.3,38.8c0,0.1-0.1,0.2-0.1,0.3
		c0,0.1,0,0.2,0,0.2c0,0.1,0,0.1,0,0.2c0,0.1,0,0.1,0.1,0.1c0,0,0,0,0.1,0c0,0,0,0,0,0c0,0,0.1,0,0.1-0.1c0.1,0,0.1-0.1,0.2-0.2
		c0,0,0.1-0.1,0.1-0.2c0-0.1,0.1-0.2,0.1-0.3c0,0,0,0,0-0.1c0-0.1,0-0.1,0.1-0.2c0-0.1,0-0.2,0.1-0.2c0-0.1,0-0.2,0-0.2
		c0,0,0,0,0-0.1s0-0.1,0-0.1c0,0,0-0.1-0.1-0.1c0,0-0.1,0-0.1,0c0,0,0,0-0.1,0c0,0-0.1,0-0.1,0.1c-0.1,0-0.1,0.1-0.1,0.1
		c0,0.1-0.1,0.1-0.1,0.1c0,0-0.1,0.1-0.1,0.2C21.3,38.6,21.3,38.7,21.3,38.8z"/>
	<path class="st3" d="M23.4,40c0,0.1,0,0.2,0,0.2c0,0.1,0,0.2,0,0.2c0,0.1,0,0.2,0,0.3s0,0.2,0,0.3c0,0,0,0.1,0,0.1c0,0,0,0.1,0,0.1
		c0,0-0.1,0.1-0.1,0.1c0,0-0.1,0-0.1,0c-0.1,0-0.1,0-0.2,0c0,0-0.1-0.1-0.1-0.2c0,0,0-0.1,0-0.1c0-0.1,0-0.1,0-0.1
		c0-0.1,0-0.1,0-0.2c0-0.1,0-0.1,0-0.2c0-0.2,0.1-0.4,0.1-0.6c0-0.2,0.1-0.4,0.1-0.6c0-0.1,0-0.2,0-0.3c0-0.1,0-0.2,0-0.3
		c0-0.1,0-0.2,0-0.3c0,0,0,0-0.1,0.1c0,0-0.1,0-0.1,0c-0.1,0-0.1,0-0.1-0.1c0,0-0.1-0.1-0.1-0.1c0-0.1,0-0.1,0-0.2s0.1-0.1,0.1-0.1
		c0.1,0,0.1-0.1,0.2-0.1c0.1,0,0.1,0,0.2,0c0,0,0,0,0.1,0c0,0,0.1,0,0.1,0.1c0,0,0.1,0.1,0.1,0.1c0,0,0,0.1,0,0.2c0,0,0,0.1,0,0.1
		c0,0,0,0.1,0,0.1c0-0.1,0.1-0.2,0.1-0.3c0.1-0.1,0.1-0.2,0.2-0.2c0.1,0,0.1-0.1,0.2-0.1c0,0,0.1,0,0.1,0c0,0,0.1,0,0.1,0
		c0,0,0.1,0,0.1,0c0.1,0,0.1,0.1,0.2,0.1c0,0.1,0.1,0.1,0.1,0.2c0,0.1,0,0.1,0.1,0.2c0,0.1,0,0.1,0,0.2c0,0.1,0,0.2,0,0.4
		c0,0.2-0.1,0.4-0.1,0.6c0,0,0,0.1,0,0.1c0,0.1-0.1,0.1-0.1,0.2c0,0.1-0.1,0.1-0.2,0.2c-0.1,0.1-0.1,0.1-0.2,0.2c0,0-0.1,0-0.1,0
		c-0.1,0-0.1,0-0.2,0c-0.1,0-0.1,0-0.2,0C23.6,40.1,23.5,40.1,23.4,40C23.4,40,23.4,40,23.4,40C23.4,40,23.4,40,23.4,40z M23.4,39.6
		c0,0,0.1,0.1,0.1,0.1c0,0,0.1,0,0.2,0c0,0,0.1,0,0.1,0c0,0,0.1,0,0.1-0.1c0.1-0.1,0.1-0.1,0.1-0.2c0-0.1,0.1-0.2,0.1-0.3
		c0-0.1,0.1-0.2,0.1-0.3c0-0.1,0-0.2,0-0.3c0,0,0-0.1,0-0.1c0,0,0-0.1,0-0.1c0,0-0.1-0.1-0.1-0.1c0,0-0.1,0-0.1,0c0,0-0.1,0-0.1,0.1
		c0,0-0.1,0.1-0.1,0.1c0,0.1-0.1,0.1-0.1,0.2c0,0,0,0.1-0.1,0.1c0,0,0,0.1,0,0.1c0,0,0,0.1-0.1,0.2s-0.1,0.2-0.1,0.3
		c0,0.1,0,0.1,0,0.2C23.5,39.4,23.5,39.5,23.4,39.6z"/>
	<path class="st3" d="M25.5,40c0,0.1,0,0.2,0,0.2c0,0.1,0,0.2,0,0.2c0,0.1,0,0.2,0,0.3s0,0.2,0,0.3c0,0,0,0.1,0,0.1c0,0,0,0.1,0,0.1
		c0,0-0.1,0.1-0.1,0.1c0,0-0.1,0-0.1,0c-0.1,0-0.1,0-0.2,0c0,0-0.1-0.1-0.1-0.2c0,0,0-0.1,0-0.1c0-0.1,0-0.1,0-0.1
		c0-0.1,0-0.1,0-0.2c0-0.1,0-0.1,0-0.2c0-0.2,0.1-0.4,0.1-0.6c0-0.2,0.1-0.4,0.1-0.6c0-0.1,0-0.2,0-0.3c0-0.1,0-0.2,0-0.3
		c0-0.1,0-0.2,0-0.3c0,0,0,0-0.1,0.1c0,0-0.1,0-0.1,0c-0.1,0-0.1,0-0.1-0.1c0,0-0.1-0.1-0.1-0.1c0-0.1,0-0.1,0-0.2s0.1-0.1,0.1-0.1
		c0.1,0,0.1-0.1,0.2-0.1c0.1,0,0.1,0,0.2,0c0,0,0,0,0.1,0c0,0,0.1,0,0.1,0.1c0,0,0.1,0.1,0.1,0.1c0,0,0,0.1,0,0.2c0,0,0,0.1,0,0.1
		c0,0,0,0.1,0,0.1c0-0.1,0.1-0.2,0.1-0.3c0.1-0.1,0.1-0.2,0.2-0.2c0.1,0,0.1-0.1,0.2-0.1c0,0,0.1,0,0.1,0c0,0,0.1,0,0.1,0
		c0,0,0.1,0,0.1,0c0.1,0,0.1,0.1,0.2,0.1c0,0.1,0.1,0.1,0.1,0.2c0,0.1,0,0.1,0.1,0.2c0,0.1,0,0.1,0,0.2c0,0.1,0,0.2,0,0.4
		c0,0.2-0.1,0.4-0.1,0.6c0,0,0,0.1,0,0.1c0,0.1-0.1,0.1-0.1,0.2c0,0.1-0.1,0.1-0.2,0.2c-0.1,0.1-0.1,0.1-0.2,0.2c0,0-0.1,0-0.1,0
		c-0.1,0-0.1,0-0.2,0c-0.1,0-0.1,0-0.2,0C25.7,40.1,25.7,40.1,25.5,40C25.6,40,25.6,40,25.5,40C25.6,40,25.6,40,25.5,40z M25.6,39.6
		c0,0,0.1,0.1,0.1,0.1c0,0,0.1,0,0.2,0c0,0,0.1,0,0.1,0c0,0,0.1,0,0.1-0.1c0.1-0.1,0.1-0.1,0.1-0.2c0-0.1,0.1-0.2,0.1-0.3
		c0-0.1,0.1-0.2,0.1-0.3c0-0.1,0-0.2,0-0.3c0,0,0-0.1,0-0.1c0,0,0-0.1,0-0.1c0,0-0.1-0.1-0.1-0.1c0,0-0.1,0-0.1,0c0,0-0.1,0-0.1,0.1
		c0,0-0.1,0.1-0.1,0.1c0,0.1-0.1,0.1-0.1,0.2c0,0,0,0.1-0.1,0.1c0,0,0,0.1,0,0.1c0,0,0,0.1-0.1,0.2s-0.1,0.2-0.1,0.3
		c0,0.1,0,0.1,0,0.2C25.6,39.4,25.6,39.5,25.6,39.6z"/>
</g>
</svg>
