<svg xmlns="http://www.w3.org/2000/svg" viewBox="0 0 50 50"><defs><style>.cls-1{fill:#f297ff;}</style></defs><g id="ELEMENTS"><path class="cls-1" d="M34.37,13.63a2.08,2.08,0,1,0,2.07,2.07A2.08,2.08,0,0,0,34.37,13.63Z"/><path class="cls-1" d="M25.15,16.29A8.71,8.71,0,1,0,33.86,25,8.73,8.73,0,0,0,25.15,16.29Zm0,14.29A5.58,5.58,0,1,1,30.73,25,5.59,5.59,0,0,1,25.15,30.58Z"/><path class="cls-1" d="M32.06,42.69H17.94A10.64,10.64,0,0,1,7.31,32.06V17.94A10.64,10.64,0,0,1,17.94,7.31H32.06A10.64,10.64,0,0,1,42.69,17.94V32.06A10.64,10.64,0,0,1,32.06,42.69Zm-14.12-32a7.3,7.3,0,0,0-7.3,7.3V32.06a7.3,7.3,0,0,0,7.3,7.3H32.06a7.3,7.3,0,0,0,7.3-7.3V17.94a7.3,7.3,0,0,0-7.3-7.3Z"/></g></svg>