<svg xmlns="http://www.w3.org/2000/svg" viewBox="0 0 50 50"><defs><style>.cls-1{fill:#f297ff;}</style></defs><g id="ELEMENTS"><path class="cls-1" d="M46.32,11.55A17.87,17.87,0,0,1,42,12.79c.7-.12,1.73-1.38,2.14-1.9a7.86,7.86,0,0,0,1.44-2.63c0-.07.07-.17,0-.22a.24.24,0,0,0-.23,0,22,22,0,0,1-5.15,2,.34.34,0,0,1-.36-.1c-.15-.16-.29-.32-.45-.46a9.44,9.44,0,0,0-2.5-1.53A8.65,8.65,0,0,0,33,7.33a9.22,9.22,0,0,0-3.63,1,9.32,9.32,0,0,0-2.93,2.4,8.89,8.89,0,0,0-1.75,3.5,9.41,9.41,0,0,0-.09,3.7c0,.21,0,.24-.18.21-7.08-1.05-12.95-3.59-17.71-9-.21-.24-.32-.24-.49,0-2.09,3.13-1.07,8.15,1.53,10.62.35.32.7.65,1.09.95a9.14,9.14,0,0,1-3.42-.95c-.21-.14-.31-.06-.33.17a5.12,5.12,0,0,0,.06,1,9.07,9.07,0,0,0,5.6,7.24,5.48,5.48,0,0,0,1.13.35,10.25,10.25,0,0,1-3.35.1c-.24-.05-.34.08-.24.31,1.47,4,4.65,5.22,7,5.9.32.05.64.05,1,.13,0,0,0,0-.06,0-.79,1.21-3.53,2.11-4.81,2.55a17.11,17.11,0,0,1-7.3.94c-.4-.06-.48,0-.59,0s0,.16.12.26c.49.33,1,.62,1.52.9a23.94,23.94,0,0,0,4.88,2c8.78,2.42,18.66.64,25.25-5.91,5.17-5.14,7-12.23,7-19.33,0-.27.32-.43.52-.57a17.43,17.43,0,0,0,3.44-3.58,1.08,1.08,0,0,0,.22-.68v0C46.49,11.44,46.49,11.47,46.32,11.55Z"/></g></svg>