<?xml version="1.0" encoding="utf-8"?>
<!-- Generator: Adobe Illustrator 26.0.0, SVG Export Plug-In . SVG Version: 6.00 Build 0)  -->
<svg version="1.1" id="Capa_1" xmlns="http://www.w3.org/2000/svg" xmlns:xlink="http://www.w3.org/1999/xlink" x="0px" y="0px"
	 viewBox="0 0 48 48" style="enable-background:new 0 0 48 48;" xml:space="preserve">
<style type="text/css">
	.st0{fill:#8900B3;}
</style>
<path class="st0" d="M42.1,12c-0.1-0.1-0.2-0.3-0.4-0.4c0-0.1,0.1-0.1,0.1-0.2c1-1.5,0.2-3.1-0.7-4c-1.6-1.3-3.4-1.7-5.5-1.5
	c-0.1-0.2-0.1-0.4-0.2-0.6c-0.4-0.8-0.9-1.4-1.7-1.8c-1.5-0.8-2.9-0.8-4.5-0.2c-1,0.2-1.6,0.9-2.2,1.5c-1.6-0.6-3.2-0.5-4.6,0.2
	c-0.1-0.1-0.1-0.1-0.2-0.2l-0.4-0.3c-1.7-1.2-3.7-1.5-5.9-1.1c-2.7,0.6-5,3.2-5,5.7v1.5c-2.8-0.5-4.8,0.4-6,1.9
	c-1.2,1.8-1,3.7,0.4,5.4c0.1,0.1,0.4,0.3,0.4,0.5c0.1,0.8,0.2,1.4,0.4,2.2c0.2,1.2,0.4,2.5,0.6,3.7c0.2,1.9,0.6,3.8,1,5.6
	c0.4,1.6,0.6,3.1,0.9,4.7c0.4,2,0.7,4,1.1,5.9c0.2,1.1,0.4,2,0.6,3c0.1,0.6,0.5,1,1.2,1h24.2c2-0.1,3.3-1.2,3.7-2.8
	c0.2-1.1,0.4-2.3,0.6-3.3c0.4-1.6,0.6-3.2,0.9-4.9c0.2-1.6,0.6-3.3,0.9-5c0.2-1.3,0.5-2.5,0.7-3.8c0.2-1.2,0.4-2.3,0.6-3.4
	c0.2-1.3,0.4-2.6,0.7-3.9C44.2,15.3,43.7,13.5,42.1,12z M29.9,5.1c0.6-0.2,1.2-0.3,2-0.2c1.1,0.2,1.5,0.8,1.6,1.7v0.5
	c-0.1,1,0.7,1.5,1.7,1.1c1.1-0.4,2.1-0.4,3.2-0.1c0.4,0.1,0.6,0.3,1,0.5c0.7,0.5,0.9,1.2,0.4,2c-1.3-0.4-2.7-0.3-4,0.1
	c-1.1-1.9-2.9-3-5.5-2.7c-0.4-0.8-0.7-1.4-1.1-2.2C29.2,5.5,29.4,5.3,29.9,5.1z M40.3,24.2c-0.2,1.2-0.5,2.5-0.7,3.7
	c-0.2,1.5-0.6,3.1-0.9,4.6c-0.4,1.5-0.6,3.1-0.9,4.6c-0.2,1.1-0.4,2.3-0.6,3.4c0,0.5-0.1,0.9-0.2,1.3c-0.1,0.6-0.5,0.9-1.2,0.9
	l-23.5-0.1c-1.3-7.3-2.6-14.5-4-21.8l-0.4-1.9c-0.4,0-0.7-1.3-0.9-1.7c-0.6-1.4-0.2-2.8,1.5-3.2c0.5-0.1,1-0.1,1.5,0
	c0.6,0.2,1.2,0.3,1.8,0.5c1.1,0.3,1.8-0.4,1.7-1.1c-0.1-0.4-0.1-0.9-0.2-1.3c-0.2-1-0.1-2,0.5-3c1.2-2,4.6-3,7.1-0.7
	c0.1,0.1,0.2,0.3,0.2,0.3c0.5,0.5,1,0.5,1.7,0.2c0.2-0.1,0.5-0.3,0.7-0.4c1.2-0.5,2.6-0.3,3.4,0.6c0.5,0.5,0.6,1.1,0.7,1.7
	c0.1,0.2,0.1,0.4,0.1,0.5c0.1,0.6,0.6,0.8,1.2,0.8c0.2,0,0.6-0.1,0.9-0.1c1.5-0.2,2.6-0.2,3.5,1.4c0.1,0.2,0.2,0.5,0.4,0.7
	c0.4,0.6,1,0.7,1.7,0.5c0.2-0.1,0.6-0.2,0.9-0.3c1.7-0.8,3.9-0.1,4.8,1.5c0.5,0.7,0.7,1.5,0.2,2.4 M21.7,22.7c0,2.6-1.2,4.8-2.8,4.8
	s-2.8-2.1-2.8-4.8s1.2-4.8,2.8-4.8S21.7,20,21.7,22.7z M33,22.7c0,2.6-1.2,4.8-2.8,4.8s-2.8-2.1-2.8-4.8s1.2-4.8,2.8-4.8
	S33,20,33,22.7z M18,31.1h13.9c0,0-0.6,9-7.4,8.5C17.8,39,18,31.1,18,31.1z"/>
</svg>
