<svg id="Capa_1" data-name="Capa 1" xmlns="http://www.w3.org/2000/svg" viewBox="0 0 90 90"><defs><style>.cls-1{fill:#7a7a7a;}</style></defs><path class="cls-1" d="M45,10.16c11.35,0,12.69,0,17.17.25a23.4,23.4,0,0,1,7.9,1.46A13.15,13.15,0,0,1,75,15.05a13.15,13.15,0,0,1,3.18,4.88,23.4,23.4,0,0,1,1.46,7.9c.21,4.48.25,5.82.25,17.17s0,12.69-.25,17.17a23.4,23.4,0,0,1-1.46,7.9,14.11,14.11,0,0,1-8.06,8.06,23.4,23.4,0,0,1-7.9,1.46c-4.48.21-5.82.25-17.17.25s-12.69,0-17.17-.25a23.4,23.4,0,0,1-7.9-1.46A13.15,13.15,0,0,1,15.05,75a13.15,13.15,0,0,1-3.18-4.88,23.4,23.4,0,0,1-1.46-7.9c-.21-4.48-.25-5.82-.25-17.17s0-12.69.25-17.17a23.4,23.4,0,0,1,1.46-7.9,13.15,13.15,0,0,1,3.18-4.88,13.15,13.15,0,0,1,4.88-3.18,23.4,23.4,0,0,1,7.9-1.46c4.48-.21,5.82-.25,17.17-.25M45,2.5c-11.54,0-13,0-17.52.26a31,31,0,0,0-10.32,2A21.7,21.7,0,0,0,4.73,17.16a31,31,0,0,0-2,10.32C2.55,32,2.5,33.46,2.5,45s0,13,.26,17.52a31,31,0,0,0,2,10.32A21.7,21.7,0,0,0,17.16,85.27a31,31,0,0,0,10.32,2c4.53.21,6,.26,17.52.26s13,0,17.52-.26a31,31,0,0,0,10.32-2A21.7,21.7,0,0,0,85.27,72.84a31,31,0,0,0,2-10.32c.21-4.53.26-6,.26-17.52s0-13-.26-17.52a31,31,0,0,0-2-10.32A21.7,21.7,0,0,0,72.84,4.73a31,31,0,0,0-10.32-2C58,2.55,56.54,2.5,45,2.5Z"/><path class="cls-1" d="M45,23.18A21.82,21.82,0,1,0,66.82,45,21.82,21.82,0,0,0,45,23.18Zm0,36A14.17,14.17,0,1,1,59.17,45,14.18,14.18,0,0,1,45,59.17Z"/><circle class="cls-1" cx="67.69" cy="22.31" r="5.1"/></svg>