<svg id="Layer_1" data-name="Layer 1" xmlns="http://www.w3.org/2000/svg" viewBox="0 0 500 500"><defs><style>.cls-1{fill:#fff;}</style></defs><path class="cls-1" d="M125.26,212.47V172.82h5V212c0,16,8.63,25.2,23,25.2,13.76,0,22.59-8.33,22.59-24.72V172.82h5v39.07c0,19.49-11.35,29.86-27.83,29.86C136.79,241.75,125.26,231.47,125.26,212.47Z"/><path class="cls-1" d="M191.67,172.82h4.75l46.83,59v-59h4.84v67.86h-3.78l-47.8-60.3v60.3h-4.84Z"/><path class="cls-1" d="M122.25,260.67h18.81v51.38h32.87v16.48H122.25Z"/><path class="cls-1" d="M167.62,294.79v-.19c0-19.49,15.71-35.29,36.65-35.29s36.46,15.61,36.46,35.1v.19c0,19.49-15.71,35.29-36.65,35.29S167.62,314.28,167.62,294.79Zm53.81,0v-.19c0-9.89-7-18.32-17.35-18.32s-17.26,8.33-17.26,18.13v.19c0,9.79,7.08,18.32,17.45,18.32S221.43,304.59,221.43,294.79Z"/><path class="cls-1" d="M239.85,294.79v-.19c0-19.78,15.51-35.29,36.45-35.29,11.93,0,20.36,3.59,27.54,9.79l-11,13.38c-4.85-4.07-9.6-6.4-16.39-6.4-9.79,0-17.35,8.15-17.35,18.52v.19c0,11.06,7.66,18.91,18.42,18.91,4.65,0,8.14-1,10.86-2.81v-8.24H275V288.88h31.13v30.44a45.24,45.24,0,0,1-29.48,10.57C255.56,329.89,239.85,315.35,239.85,294.79Z"/><path class="cls-1" d="M306.07,294.79v-.19c0-19.49,15.7-35.29,36.64-35.29s36.46,15.61,36.46,35.1v.19c0,19.49-15.71,35.29-36.65,35.29S306.07,314.28,306.07,294.79Zm53.81,0v-.19c0-9.89-7-18.32-17.36-18.32s-17.26,8.33-17.26,18.13v.19c0,9.79,7.08,18.32,17.45,18.32S359.88,304.59,359.88,294.79Z"/></svg>