<svg id="Capa_1" data-name="Capa 1" xmlns="http://www.w3.org/2000/svg" viewBox="0 0 90 90"><defs><style>.cls-1{fill:#7a7a7a;fill-rule:evenodd;}</style></defs><g id="WA_Logo" data-name="WA Logo"><path class="cls-1" d="M76.09,13.67A42.83,42.83,0,0,0,8.69,65.32L2.62,87.51l22.7-6a42.74,42.74,0,0,0,20.46,5.21h0A42.82,42.82,0,0,0,76.09,13.67ZM45.8,79.53h0a35.43,35.43,0,0,1-18.11-5l-1.3-.77L12.9,77.34l3.59-13.13-.84-1.35A35.59,35.59,0,1,1,45.8,79.53ZM65.32,52.89C64.25,52.35,59,49.76,58,49.41s-1.7-.54-2.41.53-2.76,3.48-3.39,4.2-1.25.8-2.32.26a29,29,0,0,1-8.6-5.31,31.79,31.79,0,0,1-5.95-7.41c-.63-1.07-.07-1.64.47-2.18s1.07-1.25,1.6-1.87a7,7,0,0,0,1.07-1.79A2,2,0,0,0,38.39,34c-.26-.54-2.4-5.8-3.3-7.94s-1.75-1.81-2.4-1.84-1.34,0-2,0a3.94,3.94,0,0,0-2.86,1.34A12,12,0,0,0,24,34.42c0,5.26,3.83,10.35,4.37,11.06S36,57,46.69,61.63a61.22,61.22,0,0,0,6.09,2.25,14.68,14.68,0,0,0,6.74.43c2.06-.31,6.33-2.59,7.23-5.09s.89-4.64.62-5.08S66.39,53.42,65.32,52.89Z"/></g></svg>