<svg id="Capa_1" data-name="Capa 1" xmlns="http://www.w3.org/2000/svg" viewBox="0 0 100 100"><defs><style>.cls-1{fill:#fff;}</style></defs><polyline class="cls-1" points="76.7 23.33 87.86 23.33 87.86 30.78 76.7 30.78 76.7 41.92 69.27 41.92 69.27 30.78 58.12 30.78 58.12 23.33 69.27 23.33 69.27 12.18 76.7 12.18 76.7 23.33"/><path class="cls-1" d="M19.82,18.75a7.65,7.65,0,0,0-7.68,7.62V80.15a7.69,7.69,0,0,0,7.68,7.67H73.54a7.67,7.67,0,0,0,7.67-7.67V53.29H73.54V80.15H19.82V26.42H46.66V18.75H19.82"/><path class="cls-1" d="M55.77,46.66a19,19,0,0,0-6.3-2.86v5.59c7.42,1.69,11.23,4.32,11.23,10.15v.09c0,5.73-4.42,9.26-11.09,9.87v4.6H44.73V69.45A26.55,26.55,0,0,1,32,64.75l4.23-6.25A22.59,22.59,0,0,0,45,62.4V56.72C37.49,55,33.59,52.39,33.59,46.52v-.09c0-5.5,4.09-9.31,11.23-9.82V33.88h4.89V36.7a22.63,22.63,0,0,1,9.91,3.62ZM45.05,48.49V43.42c-2.3.14-3.19,1.08-3.19,2.3v.1C41.86,47.09,42.52,47.79,45.05,48.49Zm4.37,9v5.17c2.16-.19,3.15-1,3.15-2.4v-.09C52.57,58.88,51.87,58.13,49.42,57.47Z"/></svg>