<?xml version="1.0" encoding="utf-8"?>
<!-- Generator: Adobe Illustrator 26.0.0, SVG Export Plug-In . SVG Version: 6.00 Build 0)  -->
<svg version="1.1" id="Capa_1" xmlns="http://www.w3.org/2000/svg" xmlns:xlink="http://www.w3.org/1999/xlink" x="0px" y="0px"
	 viewBox="0 0 100 100" style="enable-background:new 0 0 100 100;" xml:space="preserve">
<style type="text/css">
	.st0{fill:#FFFFFF;}
</style>
<g>
	<polyline class="st0" points="76.7,20.3 87.9,20.3 87.9,27.8 76.7,27.8 76.7,38.9 69.3,38.9 69.3,27.8 58.1,27.8 58.1,20.3 
		69.3,20.3 69.3,9.2 76.7,9.2 76.7,20.3 	"/>
	<path class="st0" d="M19.8,15.7c-4.2,0-7.7,3.4-7.7,7.6c0,0,0,0,0,0.1v53.7c0,4.2,3.4,7.7,7.7,7.7h53.7c4.2,0,7.7-3.4,7.7-7.7V50.3
		h-7.7v26.9H19.8V23.4h26.8v-7.7H19.8"/>
	<g>
		<path class="st0" d="M55.8,43.7c-1.9-1.4-4.2-2.3-6.3-2.9v5.6c7.4,1.7,11.2,4.3,11.2,10.1v0.1c0,5.7-4.4,9.3-11.1,9.9v4.6h-4.9
			v-4.7c-4.7-0.5-9.2-2.2-12.7-4.7l4.2-6.2c3.1,2.1,5.8,3.4,8.7,3.9v-5.7c-7.5-1.7-11.4-4.3-11.4-10.2v-0.1c0-5.5,4.1-9.3,11.2-9.8
			v-2.7h4.9v2.8c3.9,0.5,7,1.7,9.9,3.6L55.8,43.7z M45.1,45.5v-5.1c-2.3,0.1-3.2,1.1-3.2,2.3v0.1C41.9,44.1,42.5,44.8,45.1,45.5z
			 M49.4,54.5v5.2c2.2-0.2,3.1-1,3.1-2.4v-0.1C52.6,55.9,51.9,55.1,49.4,54.5z"/>
	</g>
</g>
</svg>
