<svg id="Capa_1" data-name="Capa 1" xmlns="http://www.w3.org/2000/svg" viewBox="0 0 75.71 75.64"><defs><style>.cls-1{fill:#fff;}</style></defs><polyline class="cls-1" points="64.56 11.15 75.71 11.15 75.71 18.59 64.56 18.59 64.56 29.74 57.13 29.74 57.13 18.59 45.97 18.59 45.97 11.15 57.13 11.15 57.13 0 64.56 0 64.56 11.15"/><path class="cls-1" d="M20.16,15.8a7.65,7.65,0,0,0-7.68,7.62V77.2a7.68,7.68,0,0,0,7.68,7.67H73.88a7.66,7.66,0,0,0,7.67-7.67V50.34H73.88V77.2H20.16V23.47H47V15.8H20.16" transform="translate(-12.48 -9.23)"/><path class="cls-1" d="M56.1,43.71a18.91,18.91,0,0,0-6.29-2.86v5.59C57.23,48.13,61,50.76,61,56.59v.09c0,5.73-4.41,9.26-11.08,9.87v4.6H45.06V66.5a26.55,26.55,0,0,1-12.68-4.7l4.22-6.25a22.57,22.57,0,0,0,8.74,3.9V53.77C37.83,52,33.93,49.45,33.93,43.57v-.09c0-5.5,4.08-9.3,11.22-9.82V30.93H50v2.82A22.59,22.59,0,0,1,60,37.37ZM45.39,45.55V40.47c-2.3.14-3.2,1.08-3.2,2.3v.1C42.19,44.14,42.85,44.84,45.39,45.55Zm4.37,9v5.17c2.16-.19,3.15-1,3.15-2.4V57.2C52.91,55.93,52.2,55.18,49.76,54.52Z" transform="translate(-12.48 -9.23)"/></svg>